<svg width="320" height="320" viewBox="0 0 320 320" xmlns="http://www.w3.org/2000/svg" shape-rendering="crispEdges"><rect width="100%" height="100%" fill="#d5d7e1" /><rect width="140" height="10" x="90" y="210" fill="#d22209" /><rect width="140" height="10" x="90" y="220" fill="#d22209" /><rect width="140" height="10" x="90" y="230" fill="#d22209" /><rect width="140" height="10" x="90" y="240" fill="#d22209" /><rect width="20" height="10" x="90" y="250" fill="#d22209" /><rect width="110" height="10" x="120" y="250" fill="#d22209" /><rect width="20" height="10" x="90" y="260" fill="#d22209" /><rect width="110" height="10" x="120" y="260" fill="#d22209" /><rect width="20" height="10" x="90" y="270" fill="#d22209" /><rect width="110" height="10" x="120" y="270" fill="#d22209" /><rect width="20" height="10" x="90" y="280" fill="#d22209" /><rect width="110" height="10" x="120" y="280" fill="#d22209" /><rect width="20" height="10" x="90" y="290" fill="#d22209" /><rect width="110" height="10" x="120" y="290" fill="#d22209" /><rect width="20" height="10" x="90" y="300" fill="#d22209" /><rect width="110" height="10" x="120" y="300" fill="#d22209" /><rect width="20" height="10" x="90" y="310" fill="#d22209" /><rect width="110" height="10" x="120" y="310" fill="#d22209" /><rect width="20" height="10" x="140" y="240" fill="#d8dadf" /><rect width="20" height="10" x="170" y="240" fill="#d8dadf" /><rect width="70" height="10" x="130" y="250" fill="#d8dadf" /><rect width="70" height="10" x="130" y="260" fill="#d8dadf" /><rect width="50" height="10" x="140" y="270" fill="#d8dadf" /><rect width="30" height="10" x="150" y="280" fill="#d8dadf" /><rect width="10" height="10" x="160" y="290" fill="#d8dadf" /><rect width="10" height="10" x="80" y="50" fill="#b9185c" /><rect width="10" height="10" x="90" y="50" fill="#0079fc" /><rect width="10" height="10" x="100" y="50" fill="#0079fc" /><rect width="10" height="10" x="110" y="50" fill="#0079fc" /><rect width="10" height="10" x="120" y="50" fill="#0079fc" /><rect width="10" height="10" x="130" y="50" fill="#0079fc" /><rect width="10" height="10" x="140" y="50" fill="#f7913d" /><rect width="10" height="10" x="150" y="50" fill="#b9185c" /><rect width="10" height="10" x="160" y="50" fill="#b9185c" /><rect width="10" height="10" x="170" y="50" fill="#f7913d" /><rect width="10" height="10" x="180" y="50" fill="#0079fc" /><rect width="10" height="10" x="190" y="50" fill="#0079fc" /><rect width="10" height="10" x="200" y="50" fill="#0079fc" /><rect width="10" height="10" x="210" y="50" fill="#0079fc" /><rect width="10" height="10" x="220" y="50" fill="#0079fc" /><rect width="10" height="10" x="230" y="50" fill="#b9185c" /><rect width="10" height="10" x="80" y="60" fill="#0079fc" /><rect width="10" height="10" x="90" y="60" fill="#f7913d" /><rect width="10" height="10" x="100" y="60" fill="#b9185c" /><rect width="10" height="10" x="110" y="60" fill="#0079fc" /><rect width="10" height="10" x="120" y="60" fill="#b9185c" /><rect width="10" height="10" x="130" y="60" fill="#b9185c" /><rect width="10" height="10" x="140" y="60" fill="#0079fc" /><rect width="10" height="10" x="150" y="60" fill="#b9185c" /><rect width="10" height="10" x="160" y="60" fill="#b9185c" /><rect width="10" height="10" x="170" y="60" fill="#0079fc" /><rect width="10" height="10" x="180" y="60" fill="#b9185c" /><rect width="10" height="10" x="190" y="60" fill="#b9185c" /><rect width="10" height="10" x="200" y="60" fill="#0079fc" /><rect width="10" height="10" x="210" y="60" fill="#b9185c" /><rect width="10" height="10" x="220" y="60" fill="#f7913d" /><rect width="10" height="10" x="230" y="60" fill="#0079fc" /><rect width="10" height="10" x="80" y="70" fill="#b9185c" /><rect width="10" height="10" x="90" y="70" fill="#b9185c" /><rect width="10" height="10" x="100" y="70" fill="#b9185c" /><rect width="10" height="10" x="110" y="70" fill="#b9185c" /><rect width="10" height="10" x="120" y="70" fill="#b9185c" /><rect width="10" height="10" x="130" y="70" fill="#f7913d" /><rect width="10" height="10" x="140" y="70" fill="#0079fc" /><rect width="10" height="10" x="150" y="70" fill="#b9185c" /><rect width="10" height="10" x="160" y="70" fill="#b9185c" /><rect width="10" height="10" x="170" y="70" fill="#0079fc" /><rect width="10" height="10" x="180" y="70" fill="#f7913d" /><rect width="10" height="10" x="190" y="70" fill="#b9185c" /><rect width="10" height="10" x="200" y="70" fill="#b9185c" /><rect width="10" height="10" x="210" y="70" fill="#b9185c" /><rect width="10" height="10" x="220" y="70" fill="#b9185c" /><rect width="10" height="10" x="230" y="70" fill="#b9185c" /><rect width="10" height="10" x="80" y="80" fill="#f7913d" /><rect width="10" height="10" x="90" y="80" fill="#f7913d" /><rect width="10" height="10" x="100" y="80" fill="#0079fc" /><rect width="10" height="10" x="110" y="80" fill="#b9185c" /><rect width="10" height="10" x="120" y="80" fill="#b9185c" /><rect width="10" height="10" x="130" y="80" fill="#0079fc" /><rect width="10" height="10" x="140" y="80" fill="#0079fc" /><rect width="10" height="10" x="150" y="80" fill="#b9185c" /><rect width="10" height="10" x="160" y="80" fill="#b9185c" /><rect width="10" height="10" x="170" y="80" fill="#0079fc" /><rect width="10" height="10" x="180" y="80" fill="#0079fc" /><rect width="10" height="10" x="190" y="80" fill="#b9185c" /><rect width="10" height="10" x="200" y="80" fill="#b9185c" /><rect width="10" height="10" x="210" y="80" fill="#0079fc" /><rect width="10" height="10" x="220" y="80" fill="#f7913d" /><rect width="10" height="10" x="230" y="80" fill="#f7913d" /><rect width="10" height="10" x="80" y="90" fill="#0079fc" /><rect width="10" height="10" x="90" y="90" fill="#b9185c" /><rect width="10" height="10" x="100" y="90" fill="#b9185c" /><rect width="10" height="10" x="110" y="90" fill="#b9185c" /><rect width="10" height="10" x="120" y="90" fill="#b9185c" /><rect width="10" height="10" x="130" y="90" fill="#f7913d" /><rect width="10" height="10" x="140" y="90" fill="#0079fc" /><rect width="10" height="10" x="150" y="90" fill="#b9185c" /><rect width="10" height="10" x="160" y="90" fill="#b9185c" /><rect width="10" height="10" x="170" y="90" fill="#0079fc" /><rect width="10" height="10" x="180" y="90" fill="#f7913d" /><rect width="10" height="10" x="190" y="90" fill="#b9185c" /><rect width="10" height="10" x="200" y="90" fill="#b9185c" /><rect width="10" height="10" x="210" y="90" fill="#b9185c" /><rect width="10" height="10" x="220" y="90" fill="#b9185c" /><rect width="10" height="10" x="230" y="90" fill="#0079fc" /><rect width="10" height="10" x="80" y="100" fill="#0079fc" /><rect width="10" height="10" x="90" y="100" fill="#b9185c" /><rect width="10" height="10" x="100" y="100" fill="#b9185c" /><rect width="10" height="10" x="110" y="100" fill="#b9185c" /><rect width="10" height="10" x="120" y="100" fill="#f7913d" /><rect width="10" height="10" x="130" y="100" fill="#0079fc" /><rect width="10" height="10" x="140" y="100" fill="#0079fc" /><rect width="10" height="10" x="150" y="100" fill="#0079fc" /><rect width="10" height="10" x="160" y="100" fill="#0079fc" /><rect width="10" height="10" x="170" y="100" fill="#0079fc" /><rect width="10" height="10" x="180" y="100" fill="#0079fc" /><rect width="10" height="10" x="190" y="100" fill="#f7913d" /><rect width="10" height="10" x="200" y="100" fill="#b9185c" /><rect width="10" height="10" x="210" y="100" fill="#b9185c" /><rect width="10" height="10" x="220" y="100" fill="#b9185c" /><rect width="10" height="10" x="230" y="100" fill="#0079fc" /><rect width="10" height="10" x="80" y="110" fill="#b9185c" /><rect width="10" height="10" x="90" y="110" fill="#0079fc" /><rect width="10" height="10" x="100" y="110" fill="#0079fc" /><rect width="10" height="10" x="110" y="110" fill="#0079fc" /><rect width="10" height="10" x="120" y="110" fill="#0079fc" /><rect width="10" height="10" x="130" y="110" fill="#0079fc" /><rect width="10" height="10" x="140" y="110" fill="#0079fc" /><rect width="10" height="10" x="150" y="110" fill="#b9185c" /><rect width="10" height="10" x="160" y="110" fill="#b9185c" /><rect width="10" height="10" x="170" y="110" fill="#0079fc" /><rect width="10" height="10" x="180" y="110" fill="#0079fc" /><rect width="10" height="10" x="190" y="110" fill="#0079fc" /><rect width="10" height="10" x="200" y="110" fill="#0079fc" /><rect width="10" height="10" x="210" y="110" fill="#0079fc" /><rect width="10" height="10" x="220" y="110" fill="#0079fc" /><rect width="10" height="10" x="230" y="110" fill="#b9185c" /><rect width="10" height="10" x="80" y="120" fill="#f7913d" /><rect width="10" height="10" x="90" y="120" fill="#b9185c" /><rect width="10" height="10" x="100" y="120" fill="#b9185c" /><rect width="10" height="10" x="110" y="120" fill="#b9185c" /><rect width="10" height="10" x="120" y="120" fill="#0079fc" /><rect width="10" height="10" x="130" y="120" fill="#f7913d" /><rect width="10" height="10" x="140" y="120" fill="#b9185c" /><rect width="10" height="10" x="150" y="120" fill="#b9185c" /><rect width="10" height="10" x="160" y="120" fill="#b9185c" /><rect width="10" height="10" x="170" y="120" fill="#b9185c" /><rect width="10" height="10" x="180" y="120" fill="#f7913d" /><rect width="10" height="10" x="190" y="120" fill="#0079fc" /><rect width="10" height="10" x="200" y="120" fill="#b9185c" /><rect width="10" height="10" x="210" y="120" fill="#b9185c" /><rect width="10" height="10" x="220" y="120" fill="#b9185c" /><rect width="10" height="10" x="230" y="120" fill="#f7913d" /><rect width="10" height="10" x="80" y="130" fill="#b9185c" /><rect width="10" height="10" x="90" y="130" fill="#0079fc" /><rect width="10" height="10" x="100" y="130" fill="#0079fc" /><rect width="10" height="10" x="110" y="130" fill="#b9185c" /><rect width="10" height="10" x="120" y="130" fill="#0079fc" /><rect width="10" height="10" x="130" y="130" fill="#0079fc" /><rect width="10" height="10" x="140" y="130" fill="#0079fc" /><rect width="10" height="10" x="150" y="130" fill="#b9185c" /><rect width="10" height="10" x="160" y="130" fill="#b9185c" /><rect width="10" height="10" x="170" y="130" fill="#0079fc" /><rect width="10" height="10" x="180" y="130" fill="#0079fc" /><rect width="10" height="10" x="190" y="130" fill="#0079fc" /><rect width="10" height="10" x="200" y="130" fill="#b9185c" /><rect width="10" height="10" x="210" y="130" fill="#0079fc" /><rect width="10" height="10" x="220" y="130" fill="#0079fc" /><rect width="10" height="10" x="230" y="130" fill="#b9185c" /><rect width="10" height="10" x="80" y="140" fill="#0079fc" /><rect width="10" height="10" x="90" y="140" fill="#0079fc" /><rect width="10" height="10" x="100" y="140" fill="#b9185c" /><rect width="10" height="10" x="110" y="140" fill="#0079fc" /><rect width="10" height="10" x="120" y="140" fill="#0079fc" /><rect width="10" height="10" x="130" y="140" fill="#0079fc" /><rect width="10" height="10" x="140" y="140" fill="#b9185c" /><rect width="10" height="10" x="150" y="140" fill="#0079fc" /><rect width="10" height="10" x="160" y="140" fill="#0079fc" /><rect width="10" height="10" x="170" y="140" fill="#b9185c" /><rect width="10" height="10" x="180" y="140" fill="#0079fc" /><rect width="10" height="10" x="190" y="140" fill="#0079fc" /><rect width="10" height="10" x="200" y="140" fill="#0079fc" /><rect width="10" height="10" x="210" y="140" fill="#b9185c" /><rect width="10" height="10" x="220" y="140" fill="#0079fc" /><rect width="10" height="10" x="230" y="140" fill="#0079fc" /><rect width="10" height="10" x="80" y="150" fill="#b9185c" /><rect width="10" height="10" x="90" y="150" fill="#0079fc" /><rect width="10" height="10" x="100" y="150" fill="#b9185c" /><rect width="10" height="10" x="110" y="150" fill="#b9185c" /><rect width="10" height="10" x="120" y="150" fill="#f7913d" /><rect width="10" height="10" x="130" y="150" fill="#0079fc" /><rect width="10" height="10" x="140" y="150" fill="#b9185c" /><rect width="10" height="10" x="150" y="150" fill="#0079fc" /><rect width="10" height="10" x="160" y="150" fill="#0079fc" /><rect width="10" height="10" x="170" y="150" fill="#b9185c" /><rect width="10" height="10" x="180" y="150" fill="#0079fc" /><rect width="10" height="10" x="190" y="150" fill="#f7913d" /><rect width="10" height="10" x="200" y="150" fill="#b9185c" /><rect width="10" height="10" x="210" y="150" fill="#b9185c" /><rect width="10" height="10" x="220" y="150" fill="#0079fc" /><rect width="10" height="10" x="230" y="150" fill="#b9185c" /><rect width="10" height="10" x="80" y="160" fill="#b9185c" /><rect width="10" height="10" x="90" y="160" fill="#0079fc" /><rect width="10" height="10" x="100" y="160" fill="#b9185c" /><rect width="10" height="10" x="110" y="160" fill="#b9185c" /><rect width="10" height="10" x="120" y="160" fill="#b9185c" /><rect width="10" height="10" x="130" y="160" fill="#b9185c" /><rect width="10" height="10" x="140" y="160" fill="#b9185c" /><rect width="10" height="10" x="150" y="160" fill="#b9185c" /><rect width="10" height="10" x="160" y="160" fill="#b9185c" /><rect width="10" height="10" x="170" y="160" fill="#b9185c" /><rect width="10" height="10" x="180" y="160" fill="#b9185c" /><rect width="10" height="10" x="190" y="160" fill="#b9185c" /><rect width="10" height="10" x="200" y="160" fill="#b9185c" /><rect width="10" height="10" x="210" y="160" fill="#b9185c" /><rect width="10" height="10" x="220" y="160" fill="#0079fc" /><rect width="10" height="10" x="230" y="160" fill="#b9185c" /><rect width="10" height="10" x="80" y="170" fill="#f7913d" /><rect width="10" height="10" x="90" y="170" fill="#0079fc" /><rect width="10" height="10" x="100" y="170" fill="#b9185c" /><rect width="10" height="10" x="110" y="170" fill="#b9185c" /><rect width="10" height="10" x="120" y="170" fill="#b9185c" /><rect width="10" height="10" x="130" y="170" fill="#b9185c" /><rect width="10" height="10" x="140" y="170" fill="#b9185c" /><rect width="10" height="10" x="150" y="170" fill="#0079fc" /><rect width="10" height="10" x="160" y="170" fill="#0079fc" /><rect width="10" height="10" x="170" y="170" fill="#b9185c" /><rect width="10" height="10" x="180" y="170" fill="#b9185c" /><rect width="10" height="10" x="190" y="170" fill="#b9185c" /><rect width="10" height="10" x="200" y="170" fill="#b9185c" /><rect width="10" height="10" x="210" y="170" fill="#b9185c" /><rect width="10" height="10" x="220" y="170" fill="#0079fc" /><rect width="10" height="10" x="230" y="170" fill="#f7913d" /><rect width="10" height="10" x="80" y="180" fill="#0079fc" /><rect width="10" height="10" x="90" y="180" fill="#b9185c" /><rect width="10" height="10" x="100" y="180" fill="#b9185c" /><rect width="10" height="10" x="110" y="180" fill="#b9185c" /><rect width="10" height="10" x="120" y="180" fill="#b9185c" /><rect width="10" height="10" x="130" y="180" fill="#b9185c" /><rect width="10" height="10" x="140" y="180" fill="#b9185c" /><rect width="10" height="10" x="150" y="180" fill="#b9185c" /><rect width="10" height="10" x="160" y="180" fill="#b9185c" /><rect width="10" height="10" x="170" y="180" fill="#b9185c" /><rect width="10" height="10" x="180" y="180" fill="#b9185c" /><rect width="10" height="10" x="190" y="180" fill="#b9185c" /><rect width="10" height="10" x="200" y="180" fill="#b9185c" /><rect width="10" height="10" x="210" y="180" fill="#b9185c" /><rect width="10" height="10" x="220" y="180" fill="#b9185c" /><rect width="10" height="10" x="230" y="180" fill="#0079fc" /><rect width="10" height="10" x="80" y="190" fill="#b9185c" /><rect width="10" height="10" x="90" y="190" fill="#b9185c" /><rect width="10" height="10" x="100" y="190" fill="#0079fc" /><rect width="10" height="10" x="110" y="190" fill="#0079fc" /><rect width="10" height="10" x="120" y="190" fill="#0079fc" /><rect width="10" height="10" x="130" y="190" fill="#0079fc" /><rect width="10" height="10" x="140" y="190" fill="#b9185c" /><rect width="10" height="10" x="150" y="190" fill="#0079fc" /><rect width="10" height="10" x="160" y="190" fill="#0079fc" /><rect width="10" height="10" x="170" y="190" fill="#b9185c" /><rect width="10" height="10" x="180" y="190" fill="#0079fc" /><rect width="10" height="10" x="190" y="190" fill="#0079fc" /><rect width="10" height="10" x="200" y="190" fill="#0079fc" /><rect width="10" height="10" x="210" y="190" fill="#0079fc" /><rect width="10" height="10" x="220" y="190" fill="#b9185c" /><rect width="10" height="10" x="230" y="190" fill="#b9185c" /><rect width="10" height="10" x="80" y="200" fill="#b9185c" /><rect width="10" height="10" x="90" y="200" fill="#0079fc" /><rect width="10" height="10" x="100" y="200" fill="#b9185c" /><rect width="10" height="10" x="110" y="200" fill="#b9185c" /><rect width="10" height="10" x="120" y="200" fill="#0079fc" /><rect width="10" height="10" x="130" y="200" fill="#0079fc" /><rect width="10" height="10" x="140" y="200" fill="#b9185c" /><rect width="10" height="10" x="150" y="200" fill="#0079fc" /><rect width="10" height="10" x="160" y="200" fill="#0079fc" /><rect width="10" height="10" x="170" y="200" fill="#b9185c" /><rect width="10" height="10" x="180" y="200" fill="#0079fc" /><rect width="10" height="10" x="190" y="200" fill="#0079fc" /><rect width="10" height="10" x="200" y="200" fill="#b9185c" /><rect width="10" height="10" x="210" y="200" fill="#b9185c" /><rect width="10" height="10" x="220" y="200" fill="#0079fc" /><rect width="10" height="10" x="230" y="200" fill="#b9185c" /><rect width="60" height="10" x="100" y="110" fill="#000000" /><rect width="60" height="10" x="170" y="110" fill="#000000" /><rect width="40" height="10" x="100" y="120" fill="#000000" /><rect width="10" height="10" x="140" y="120" fill="#ffffff" /><rect width="10" height="10" x="150" y="120" fill="#000000" /><rect width="40" height="10" x="170" y="120" fill="#000000" /><rect width="10" height="10" x="210" y="120" fill="#ffffff" /><rect width="10" height="10" x="220" y="120" fill="#000000" /><rect width="70" height="10" x="70" y="130" fill="#000000" /><rect width="10" height="10" x="140" y="130" fill="#ffffff" /><rect width="60" height="10" x="150" y="130" fill="#000000" /><rect width="10" height="10" x="210" y="130" fill="#ffffff" /><rect width="10" height="10" x="220" y="130" fill="#000000" /><rect width="10" height="10" x="70" y="140" fill="#000000" /><rect width="60" height="10" x="100" y="140" fill="#000000" /><rect width="60" height="10" x="170" y="140" fill="#000000" /><rect width="10" height="10" x="70" y="150" fill="#000000" /><rect width="60" height="10" x="100" y="150" fill="#000000" /><rect width="60" height="10" x="170" y="150" fill="#000000" /><rect width="60" height="10" x="100" y="160" fill="#000000" /><rect width="60" height="10" x="170" y="160" fill="#000000" /></svg>